<?xml version="1.0" ?>
<!-- Uploaded to: SVG Repo, www.svgrepo.com, Generator: SVG Repo Mixer Tools -->
<svg fill="#000000" width="800px" height="800px" viewBox="0 0 400 400" id="Night" version="1.1" xml:space="preserve" xmlns="http://www.w3.org/2000/svg" xmlns:xlink="http://www.w3.org/1999/xlink">
<g id="XMLID_42_">
<polygon id="XMLID_44_" points="133.3,53.3 133.3,26.7 106.7,26.7 80,26.7 80,53.3 106.7,53.3  "/>
<polygon id="XMLID_64_" points="160,53.3 186.7,53.3 186.7,26.7 213.3,26.7 213.3,0 186.7,0 160,0 133.3,0 133.3,26.7 160,26.7     "/>
<rect height="26.7" id="XMLID_65_" width="26.7" x="53.3" y="53.3"/>
<rect height="26.7" id="XMLID_66_" width="26.7" x="133.3" y="53.3"/>
<polygon id="XMLID_90_" points="106.7,106.7 106.7,133.3 106.7,160 106.7,186.7 106.7,213.3 133.3,213.3 133.3,186.7 133.3,160    133.3,133.3 133.3,106.7 133.3,80 106.7,80  "/>
<polygon id="XMLID_91_" points="53.3,106.7 53.3,80 26.7,80 26.7,106.7 26.7,133.3 53.3,133.3  "/>
<polygon id="XMLID_92_" points="373.3,186.7 373.3,213.3 346.7,213.3 346.7,240 373.3,240 373.3,266.7 400,266.7 400,240    400,213.3 400,186.7  "/>
<polygon id="XMLID_93_" points="26.7,213.3 26.7,186.7 26.7,160 26.7,133.3 0,133.3 0,160 0,186.7 0,213.3 0,240 0,266.7    26.7,266.7 26.7,240  "/>
<rect height="26.7" id="XMLID_94_" width="26.7" x="133.3" y="213.3"/>
<rect height="26.7" id="XMLID_95_" width="26.7" x="160" y="240"/>
<rect height="26.7" id="XMLID_96_" width="26.7" x="320" y="240"/>
<polygon id="XMLID_97_" points="53.3,266.7 26.7,266.7 26.7,293.3 26.7,320 53.3,320 53.3,293.3  "/>
<polygon id="XMLID_98_" points="213.3,293.3 240,293.3 266.7,293.3 293.3,293.3 320,293.3 320,266.7 293.3,266.7 266.7,266.7    240,266.7 213.3,266.7 186.7,266.7 186.7,293.3  "/>
<polygon id="XMLID_99_" points="346.7,293.3 346.7,320 373.3,320 373.3,293.3 373.3,266.7 346.7,266.7  "/>
<rect height="26.7" id="XMLID_100_" width="26.7" x="53.3" y="320"/>
<rect height="26.7" id="XMLID_101_" width="26.7" x="320" y="320"/>
<polygon id="XMLID_102_" points="106.7,346.7 80,346.7 80,373.3 106.7,373.3 133.3,373.3 133.3,346.7  "/>
<polygon id="XMLID_103_" points="266.7,346.7 266.7,373.3 293.3,373.3 320,373.3 320,346.7 293.3,346.7  "/>
<polygon id="XMLID_104_" points="213.3,373.3 186.7,373.3 160,373.3 133.3,373.3 133.3,400 160,400 186.7,400 213.3,400 240,400    266.7,400 266.7,373.3 240,373.3  "/>
</g>
</svg>