<?xml version="1.0" ?>

<!-- Uploaded to: SVG Repo, www.svgrepo.com, Generator: SVG Repo Mixer Tools -->
<svg fill="#666666" width="800px" height="800px" viewBox="0 0 400 400" id="Light" version="1.1" xml:space="preserve" xmlns="http://www.w3.org/2000/svg" xmlns:xlink="http://www.w3.org/1999/xlink">

<g id="XMLID_41_">

<polygon id="XMLID_43_" points="213.3,26.7 213.3,0 186.7,0 186.7,26.7 186.7,53.3 213.3,53.3  "/>

<rect height="26.7" id="XMLID_67_" width="26.7" x="53.3" y="53.3"/>

<rect height="26.7" id="XMLID_68_" width="26.7" x="320" y="53.3"/>

<rect height="26.7" id="XMLID_69_" width="26.7" x="80" y="80"/>

<polygon id="XMLID_70_" points="213.3,106.7 240,106.7 240,80 213.3,80 186.7,80 160,80 160,106.7 186.7,106.7  "/>

<rect height="26.7" id="XMLID_71_" width="26.7" x="293.3" y="80"/>

<rect height="26.7" id="XMLID_72_" width="26.7" x="133.3" y="106.7"/>

<rect height="26.7" id="XMLID_73_" width="26.7" x="240" y="106.7"/>

<rect height="26.7" id="XMLID_74_" width="26.7" x="106.7" y="133.3"/>

<rect height="26.7" id="XMLID_75_" width="26.7" x="266.7" y="133.3"/>

<polygon id="XMLID_76_" points="53.3,186.7 26.7,186.7 0,186.7 0,213.3 26.7,213.3 53.3,213.3  "/>

<polygon id="XMLID_77_" points="106.7,186.7 106.7,160 80,160 80,186.7 80,213.3 80,240 106.7,240 106.7,213.3  "/>

<polygon id="XMLID_78_" points="293.3,213.3 293.3,240 320,240 320,213.3 320,186.7 320,160 293.3,160 293.3,186.7  "/>

<polygon id="XMLID_79_" points="373.3,186.7 346.7,186.7 346.7,213.3 373.3,213.3 400,213.3 400,186.7  "/>

<rect height="26.7" id="XMLID_80_" width="26.7" x="106.7" y="240"/>

<rect height="26.7" id="XMLID_81_" width="26.7" x="266.7" y="240"/>

<rect height="26.7" id="XMLID_82_" width="26.7" x="133.3" y="266.7"/>

<rect height="26.7" id="XMLID_83_" width="26.7" x="240" y="266.7"/>

<rect height="26.7" id="XMLID_84_" width="26.7" x="80" y="293.3"/>

<polygon id="XMLID_85_" points="186.7,293.3 160,293.3 160,320 186.7,320 213.3,320 240,320 240,293.3 213.3,293.3  "/>

<rect height="26.7" id="XMLID_86_" width="26.7" x="293.3" y="293.3"/>

<rect height="26.7" id="XMLID_87_" width="26.7" x="53.3" y="320"/>

<rect height="26.7" id="XMLID_88_" width="26.7" x="320" y="320"/>

<polygon id="XMLID_89_" points="186.7,373.3 186.7,400 213.3,400 213.3,373.3 213.3,346.7 186.7,346.7  "/>

</g>

</svg>